<?xml version="1.0" encoding="utf-8"?>
<!-- Generator: Adobe Illustrator 18.0.0, SVG Export Plug-In . SVG Version: 6.00 Build 0)  -->
<!DOCTYPE svg PUBLIC "-//W3C//DTD SVG 1.1//EN" "http://www.w3.org/Graphics/SVG/1.1/DTD/svg11.dtd">
<svg version="1.1" id="Layer_1" xmlns="http://www.w3.org/2000/svg" xmlns:xlink="http://www.w3.org/1999/xlink" x="0px" y="0px"
	 viewBox="0 0 58.1 104.6" enable-background="new 0 0 58.1 104.6" xml:space="preserve">
<g>
	<g>
		<path fill="#555559" d="M0,53.3c0-5.7,0-11.4,0-17.1c5.9,0,11.8,0,17.8,0c0-0.6,0-1.1,0-1.7c0.1-3.8-0.1-7.7,0.2-11.5
			c0.4-5.7,2.6-10.9,6.4-15.2c3.4-3.9,7.7-6.5,12.8-7.5C38.1,0.2,39,0.1,40,0C46,0,52.1,0,58.1,0c0,6,0,12.1,0,18.2
			c-0.3,0-0.5,0-0.7,0c-5.2,0-10.3,0-15.5,0c-1.1,0-2,0.4-2.7,1.2c-1.3,1.4-1.8,3.2-1.8,5.1c0,3.7,0,7.4,0,11.1c0,0.2,0,0.4,0,0.6
			c6.9,0,13.8,0,20.7,0c0,5.7,0,11.4,0,17.1c-6.9,0-13.8,0-20.7,0c0,17.1,0,34.2,0,51.3c-6.5,0-13,0-19.6,0c0-17.1,0-34.2,0-51.3
			c-0.3,0-0.5,0-0.7,0c-3.2,0-6.5,0-9.7,0C4.9,53.3,2.5,53.3,0,53.3z"/>
	</g>
</g>
</svg>
