<?xml version="1.0" encoding="utf-8"?>
<!-- Generator: Adobe Illustrator 17.1.0, SVG Export Plug-In . SVG Version: 6.00 Build 0)  -->
<!DOCTYPE svg PUBLIC "-//W3C//DTD SVG 1.1//EN" "http://www.w3.org/Graphics/SVG/1.1/DTD/svg11.dtd">
<svg version="1.1" xmlns="http://www.w3.org/2000/svg" xmlns:xlink="http://www.w3.org/1999/xlink" x="0px" y="0px"
	 viewBox="0 0 512 512" enable-background="new 0 0 512 512" xml:space="preserve">
<g id="Layer_1" display="none">
	<g display="inline">
		<g id="XMLID_4_">
			<g>
				<path fill="#007183" d="M503.342,219.921c20.913,143.568-76.275,258.36-191.102,283.523c0-69.781,0-139.143,0-209.029
					c19.744,0,39.228,0,59.18,0c0-23.383,0-46.241,0-69.545c-19.978,0-39.696,0-60.064,0c-0.779-14.611-0.649-28.672,4.183-42.261
					c4.884-13.747,13.847-23.749,28.395-26.42c8.209-1.519,16.886-0.916,25.33-0.55c5.118,0.209,10.184,1.833,16.237,3.011
					c1.221-24.247,2.442-48.074,3.715-73.316c-11.483-1.65-22.628-3.744-33.851-4.766c-29.772-2.671-58.193,1.833-84.068,17.936
					c-22.706,14.166-36.916,34.956-45.438,60.067c-6.391,18.826-8.573,38.308-8.521,58.103c0,2.461,0,4.949,0,7.986
					c-13.379,0-26.083,0-39.28,0c0,23.225,0,45.927,0,69.31c12.73,0,25.563,0,38.839,0c0,71.221,0,141.736,0,212.276
					C118.201,493.651,16.337,406.091,6.907,277.238C-3.537,134.743,102.12,20.606,230.067,7.592
					C370.225-6.678,485.053,94.393,503.342,219.921z"/>
			</g>
			<g>
			</g>
		</g>
	</g>
</g>
<g id="Layer_2" display="none">
	<rect x="-79.955" y="0.795" display="inline" fill="#E4E5E6" width="63.215" height="63.215"/>
	<rect x="-153.238" y="0.795" display="inline" fill="#4A4947" width="63.215" height="63.215"/>
	<rect x="-79.955" y="72.872" display="inline" fill="#D1D3D4" width="63.215" height="63.215"/>
	<rect x="-153.238" y="71.515" display="inline" fill="#007183" width="63.215" height="63.215"/>
	
		<rect x="-153.238" y="71.515" display="inline" fill="none" stroke="#006B84" stroke-miterlimit="10" width="63.215" height="63.215"/>
	<rect x="-79.955" y="143.494" display="inline" fill="#8382A3" width="63.215" height="63.215"/>
	<rect x="-153.238" y="143.494" display="inline" fill="#129A9A" width="63.215" height="63.215"/>
	<rect x="-79.955" y="215.571" display="inline" fill="#9676B5" width="63.215" height="63.215"/>
	<rect x="-153.238" y="215.571" display="inline" fill="#8560A8" width="63.215" height="63.215"/>
	<rect x="-79.955" y="286.194" display="inline" fill="#FFE76B" width="63.215" height="63.215"/>
	<rect x="-153.238" y="286.194" display="inline" fill="#FFCF01" width="63.215" height="63.215"/>
	<rect x="-79.955" y="358.27" display="inline" fill="#E5C93A" width="63.215" height="63.215"/>
	<rect x="-153.238" y="358.27" display="inline" fill="#DBA510" width="63.215" height="63.215"/>
	<rect x="-79.955" y="428.893" display="inline" fill="#BEE1EB" width="63.215" height="63.215"/>
	<rect x="-153.238" y="428.893" display="inline" fill="#7BC6DB" width="63.215" height="63.215"/>
	<rect x="-79.955" y="500.97" display="inline" fill="#EAC4A1" width="63.215" height="63.215"/>
	<rect x="-153.238" y="500.97" display="inline" fill="#523D33" width="63.215" height="63.215"/>
	<rect x="-79.955" y="573.182" display="inline" fill="#F79765" width="63.215" height="63.215"/>
	<rect x="-153.238" y="573.182" display="inline" fill="#F47B3D" width="63.215" height="63.215"/>
	<g display="inline">
		<defs>
			<rect id="SVGID_1_" x="-170.647" y="-169.548" width="595.28" height="841.89"/>
		</defs>
		<clipPath id="SVGID_2_">
			<use xlink:href="#SVGID_1_"  overflow="visible"/>
		</clipPath>
		<path clip-path="url(#SVGID_2_)" fill="#FFFFFF" d="M-114.516,104.479c0,3.929-3.185,7.114-7.114,7.114
			c-3.93,0-7.115-3.185-7.115-7.114c0-3.929,3.185-7.114,7.115-7.114C-117.701,97.365-114.516,100.55-114.516,104.479"/>
		<path clip-path="url(#SVGID_2_)" fill="#FFFFFF" d="M-114.516,175.102c0,3.929-3.185,7.114-7.114,7.114
			c-3.93,0-7.115-3.185-7.115-7.114c0-3.929,3.185-7.114,7.115-7.114C-117.701,167.988-114.516,171.173-114.516,175.102"/>
		<path clip-path="url(#SVGID_2_)" fill="#FFFFFF" d="M-114.516,247.179c0,3.929-3.185,7.114-7.114,7.114
			c-3.93,0-7.115-3.185-7.115-7.114c0-3.929,3.185-7.114,7.115-7.114C-117.701,240.065-114.516,243.25-114.516,247.179"/>
		<path clip-path="url(#SVGID_2_)" fill="#FFFFFF" d="M-114.516,317.801c0,3.929-3.185,7.114-7.114,7.114
			c-3.93,0-7.115-3.185-7.115-7.114c0-3.929,3.185-7.114,7.115-7.114C-117.701,310.687-114.516,313.872-114.516,317.801"/>
		<path clip-path="url(#SVGID_2_)" fill="#FFFFFF" d="M-41.233,460.501c0,3.929-3.185,7.114-7.114,7.114
			c-3.93,0-7.115-3.185-7.115-7.114c0-3.929,3.185-7.114,7.115-7.114C-44.418,453.387-41.233,456.572-41.233,460.501"/>
	</g>
</g>
<g id="Layer_3">
	<circle fill="#007183" cx="255.46" cy="255.887" r="250"/>
	<g>
		<g>
			<path fill="#FFFFFF" d="M274.167,409.475c-21.485,0-42.444,0-63.623,0c0-68.315,0-136.493,0-204.921c20.163,0,40.339,0,60.96,0
				c0,9.003,0,18.156,0,27.308c0.256,0.086,0.511,0.173,0.767,0.259c0.525-0.684,1.103-1.335,1.569-2.058
				c11.822-18.352,28.969-27.991,50.359-30.26c15.263-1.619,30.246-0.068,44.636,5.664c14.432,5.749,24.427,16.042,30.755,30.073
				c6.753,14.974,9.183,30.949,9.36,47.103c0.455,41.647,0.275,83.3,0.342,124.951c0.001,0.526-0.098,1.053-0.172,1.795
				c-21.099,0-42.138,0-63.657,0c0-1.362,0.002-2.725,0-4.087c-0.071-36.269-0.045-72.539-0.284-108.807
				c-0.057-8.602-1.262-17.148-5.008-25.095c-3.827-8.119-10.05-13.191-18.92-14.988c-8.646-1.752-17.148-1.313-25.34,1.951
				c-12.205,4.863-17.592,15.072-19.675,27.133c-1.347,7.799-1.925,15.814-1.978,23.738c-0.213,32.071-0.088,64.145-0.089,96.217
				C274.167,406.72,274.167,407.988,274.167,409.475z"/>
			<path fill="#FFFFFF" d="M106.934,204.412c21.244,0,42.207,0,63.384,0c0,68.386,0,136.664,0,205.072c-21.163,0-42.118,0-63.384,0
				C106.934,341.175,106.934,272.933,106.934,204.412z"/>
			<path fill="#FFFFFF" d="M175.505,139.394c-0.063,20.538-16.783,37.187-37.174,37.015c-20.36-0.171-36.739-16.753-36.7-37.155
				c0.039-20.531,16.649-37.052,37.161-36.963C159.086,102.379,175.567,119.035,175.505,139.394z"/>
		</g>
	</g>
</g>
</svg>
