<?xml version="1.0" encoding="utf-8"?>
<!-- Generator: Adobe Illustrator 18.0.0, SVG Export Plug-In . SVG Version: 6.00 Build 0)  -->
<!DOCTYPE svg PUBLIC "-//W3C//DTD SVG 1.1//EN" "http://www.w3.org/Graphics/SVG/1.1/DTD/svg11.dtd">
<svg version="1.1" id="Layer_1" xmlns="http://www.w3.org/2000/svg" xmlns:xlink="http://www.w3.org/1999/xlink" x="0px" y="0px"
	 viewBox="0 0 5.1 4.1" enable-background="new 0 0 5.1 4.1" xml:space="preserve">
<g id="XMLID_17_">
	<g>
		<path fill="#555559" d="M5.1,0.5C5.1,0.5,5.1,0.5,5.1,0.5C4.9,0.7,4.8,0.9,4.6,1c0,0,0,0,0,0.1c0,0.3,0,0.6-0.1,0.9
			C4.3,2.6,4,3.1,3.5,3.5C2.8,4,2.1,4.2,1.2,4.1c-0.4,0-0.7-0.2-1-0.3C0.1,3.8,0.1,3.7,0,3.7c0.6,0.1,1.1-0.1,1.5-0.4
			c-0.2,0-0.4-0.1-0.6-0.2C0.7,2.9,0.6,2.7,0.6,2.5c0.2,0,0.3,0,0.4,0c-0.6-0.1-0.8-0.7-0.8-1c0,0,0.1,0,0.1,0.1c0,0,0.1,0,0.1,0
			c0,0,0.1,0,0.1,0C0.1,1.2,0.1,0.5,0.4,0.2c0.6,0.7,1.3,1,2.1,1.1c0-0.1,0-0.3,0-0.4c0.1-0.4,0.3-0.7,0.7-0.8C3.2,0,3.3,0,3.4,0
			c0.1,0,0.1,0,0.2,0c0,0,0.1,0,0.1,0c0.2,0,0.4,0.1,0.5,0.3c0,0,0,0,0.1,0c0.1,0,0.2-0.1,0.4-0.1c0.1,0,0.2-0.1,0.3-0.1
			C4.9,0.3,4.7,0.5,4.5,0.7C4.7,0.6,4.9,0.6,5.1,0.5z"/>
	</g>
	<g>
	</g>
</g>
</svg>
