<?xml version="1.0" encoding="utf-8"?>
<!-- Generator: Adobe Illustrator 17.1.0, SVG Export Plug-In . SVG Version: 6.00 Build 0)  -->
<!DOCTYPE svg PUBLIC "-//W3C//DTD SVG 1.1//EN" "http://www.w3.org/Graphics/SVG/1.1/DTD/svg11.dtd">
<svg version="1.1" xmlns="http://www.w3.org/2000/svg" xmlns:xlink="http://www.w3.org/1999/xlink" x="0px" y="0px"
	 viewBox="0 0 512 512" enable-background="new 0 0 512 512" xml:space="preserve">
<g id="Layer_1" display="none">
	<g display="inline">
		<g id="XMLID_4_">
			<g>
				<path fill="#007183" d="M503.342,219.921c20.913,143.568-76.275,258.36-191.102,283.523c0-69.781,0-139.143,0-209.029
					c19.744,0,39.228,0,59.18,0c0-23.383,0-46.241,0-69.545c-19.978,0-39.696,0-60.064,0c-0.779-14.611-0.649-28.672,4.183-42.261
					c4.884-13.747,13.847-23.749,28.395-26.42c8.209-1.519,16.886-0.916,25.33-0.55c5.118,0.209,10.184,1.833,16.237,3.011
					c1.221-24.247,2.442-48.074,3.715-73.316c-11.483-1.65-22.628-3.744-33.851-4.766c-29.772-2.671-58.193,1.833-84.068,17.936
					c-22.706,14.166-36.916,34.956-45.438,60.067c-6.391,18.826-8.573,38.308-8.521,58.103c0,2.461,0,4.949,0,7.986
					c-13.379,0-26.083,0-39.28,0c0,23.225,0,45.927,0,69.31c12.73,0,25.563,0,38.839,0c0,71.221,0,141.736,0,212.276
					C118.201,493.651,16.337,406.091,6.907,277.238C-3.537,134.743,102.12,20.606,230.067,7.592
					C370.225-6.678,485.053,94.393,503.342,219.921z"/>
			</g>
			<g>
			</g>
		</g>
	</g>
</g>
<g id="Layer_2" display="none">
	<rect x="-79.955" y="0.795" display="inline" fill="#E4E5E6" width="63.215" height="63.215"/>
	<rect x="-153.238" y="0.795" display="inline" fill="#4A4947" width="63.215" height="63.215"/>
	<rect x="-79.955" y="72.872" display="inline" fill="#D1D3D4" width="63.215" height="63.215"/>
	<rect x="-153.238" y="71.515" display="inline" fill="#007183" width="63.215" height="63.215"/>
	
		<rect x="-153.238" y="71.515" display="inline" fill="none" stroke="#006B84" stroke-miterlimit="10" width="63.215" height="63.215"/>
	<rect x="-79.955" y="143.494" display="inline" fill="#8382A3" width="63.215" height="63.215"/>
	<rect x="-153.238" y="143.494" display="inline" fill="#129A9A" width="63.215" height="63.215"/>
	<rect x="-79.955" y="215.571" display="inline" fill="#9676B5" width="63.215" height="63.215"/>
	<rect x="-153.238" y="215.571" display="inline" fill="#8560A8" width="63.215" height="63.215"/>
	<rect x="-79.955" y="286.194" display="inline" fill="#FFE76B" width="63.215" height="63.215"/>
	<rect x="-153.238" y="286.194" display="inline" fill="#FFCF01" width="63.215" height="63.215"/>
	<rect x="-79.955" y="358.27" display="inline" fill="#E5C93A" width="63.215" height="63.215"/>
	<rect x="-153.238" y="358.27" display="inline" fill="#DBA510" width="63.215" height="63.215"/>
	<rect x="-79.955" y="428.893" display="inline" fill="#BEE1EB" width="63.215" height="63.215"/>
	<rect x="-153.238" y="428.893" display="inline" fill="#7BC6DB" width="63.215" height="63.215"/>
	<rect x="-79.955" y="500.97" display="inline" fill="#EAC4A1" width="63.215" height="63.215"/>
	<rect x="-153.238" y="500.97" display="inline" fill="#523D33" width="63.215" height="63.215"/>
	<rect x="-79.955" y="573.182" display="inline" fill="#F79765" width="63.215" height="63.215"/>
	<rect x="-153.238" y="573.182" display="inline" fill="#F47B3D" width="63.215" height="63.215"/>
	<g display="inline">
		<defs>
			<rect id="SVGID_1_" x="-170.647" y="-169.548" width="595.28" height="841.89"/>
		</defs>
		<clipPath id="SVGID_2_">
			<use xlink:href="#SVGID_1_"  overflow="visible"/>
		</clipPath>
		<path clip-path="url(#SVGID_2_)" fill="#FFFFFF" d="M-114.516,104.479c0,3.929-3.185,7.114-7.114,7.114
			c-3.93,0-7.115-3.185-7.115-7.114c0-3.929,3.185-7.114,7.115-7.114C-117.701,97.365-114.516,100.55-114.516,104.479"/>
		<path clip-path="url(#SVGID_2_)" fill="#FFFFFF" d="M-114.516,175.102c0,3.929-3.185,7.114-7.114,7.114
			c-3.93,0-7.115-3.185-7.115-7.114c0-3.929,3.185-7.114,7.115-7.114C-117.701,167.988-114.516,171.173-114.516,175.102"/>
		<path clip-path="url(#SVGID_2_)" fill="#FFFFFF" d="M-114.516,247.179c0,3.929-3.185,7.114-7.114,7.114
			c-3.93,0-7.115-3.185-7.115-7.114c0-3.929,3.185-7.114,7.115-7.114C-117.701,240.065-114.516,243.25-114.516,247.179"/>
		<path clip-path="url(#SVGID_2_)" fill="#FFFFFF" d="M-114.516,317.801c0,3.929-3.185,7.114-7.114,7.114
			c-3.93,0-7.115-3.185-7.115-7.114c0-3.929,3.185-7.114,7.115-7.114C-117.701,310.687-114.516,313.872-114.516,317.801"/>
		<path clip-path="url(#SVGID_2_)" fill="#FFFFFF" d="M-41.233,460.501c0,3.929-3.185,7.114-7.114,7.114
			c-3.93,0-7.115-3.185-7.115-7.114c0-3.929,3.185-7.114,7.115-7.114C-44.418,453.387-41.233,456.572-41.233,460.501"/>
	</g>
</g>
<g id="Layer_3" display="none">
	<circle display="inline" fill="#007183" cx="255.46" cy="255.887" r="250"/>
	<g display="inline">
		<g>
			<path fill="#FFFFFF" d="M274.167,409.475c-21.485,0-42.444,0-63.623,0c0-68.315,0-136.493,0-204.921c20.163,0,40.339,0,60.96,0
				c0,9.003,0,18.156,0,27.308c0.256,0.086,0.511,0.173,0.767,0.259c0.525-0.684,1.103-1.335,1.569-2.058
				c11.822-18.352,28.969-27.991,50.359-30.26c15.263-1.619,30.246-0.068,44.636,5.664c14.432,5.749,24.427,16.042,30.755,30.073
				c6.753,14.974,9.183,30.949,9.36,47.103c0.455,41.647,0.275,83.3,0.342,124.951c0.001,0.526-0.098,1.053-0.172,1.795
				c-21.099,0-42.138,0-63.657,0c0-1.362,0.002-2.725,0-4.087c-0.071-36.269-0.045-72.539-0.284-108.807
				c-0.057-8.602-1.262-17.148-5.008-25.095c-3.827-8.119-10.05-13.191-18.92-14.988c-8.646-1.752-17.148-1.313-25.34,1.951
				c-12.205,4.863-17.592,15.072-19.675,27.133c-1.347,7.799-1.925,15.814-1.978,23.738c-0.213,32.071-0.088,64.145-0.089,96.217
				C274.167,406.72,274.167,407.988,274.167,409.475z"/>
			<path fill="#FFFFFF" d="M106.934,204.412c21.244,0,42.207,0,63.384,0c0,68.386,0,136.664,0,205.072c-21.163,0-42.118,0-63.384,0
				C106.934,341.175,106.934,272.933,106.934,204.412z"/>
			<path fill="#FFFFFF" d="M175.505,139.394c-0.063,20.538-16.783,37.187-37.174,37.015c-20.36-0.171-36.739-16.753-36.7-37.155
				c0.039-20.531,16.649-37.052,37.161-36.963C159.086,102.379,175.567,119.035,175.505,139.394z"/>
		</g>
	</g>
</g>
<g id="Layer_4" display="none">
	<circle display="inline" fill="#007183" cx="255.984" cy="256.165" r="250"/>
	<g display="inline">
		<g id="XMLID_2_">
			<g>
				<path fill="#FFFFFF" d="M162.568,187.79c-13.103,21.757-17.962,45.26-14.55,70.511c1.01,7.616,3.685,14.468,7.534,20.992
					c1.774,3.003,3.412,6.06,5.269,9.036c5.596,8.954,6.715,18.071,4.395,27.271c-0.737,2.975-1.856,5.951-3.276,8.926
					c-0.901,1.911-1.911,3.74-2.948,5.76c-18.59-4.149-34.068-12.694-44.687-28.799c-7.534-11.438-11.11-24.268-12.885-37.699
					c-0.464-3.33-0.874-6.661-1.31-9.964c0-7.835,0-15.669,0-23.504c0.628-4.668,1.174-9.391,1.938-14.058
					c4.613-27.735,16.816-51.784,35.597-72.531c14.386-15.915,31.393-28.472,50.72-37.835c17.689-8.572,36.279-14.086,55.934-15.86
					c3.549-0.328,7.098-0.819,10.646-1.201c7.616,0,15.232,0,22.849,0c1.338,0.191,2.675,0.519,4.013,0.628
					c32.43,2.348,62.731,11.083,89.429,30.192c28.199,20.201,45.861,47.307,51.211,81.73c6.852,44.25,0.573,86.535-21.02,126.062
					c-12.857,23.531-30.71,42.394-55.251,54.105c-19.354,9.227-39.773,12.257-61.093,9.554c-12.311-1.583-22.93-6.906-32.976-13.704
					c-5.187-3.494-10.346-6.988-15.505-10.455c-0.846-0.573-1.774-1.01-2.784-1.583c-2.539,11.711-4.859,23.149-7.507,34.532
					c-5.705,24.623-12.776,48.782-25.524,70.893c-7.616,13.212-17.089,24.896-29.318,34.204c-0.464,0.355-1.01,0.628-1.911,1.174
					c-0.655-5.842-1.447-11.329-1.884-16.843c-1.42-18.29-1.119-36.525,0.682-54.787c3.194-32.266,11.52-63.441,19.682-94.697
					c1.529-5.814,3.003-11.629,4.422-17.471c2.948-11.765,5.733-23.558,8.572-35.351c0.3-1.174,0.082-2.73-0.464-3.794
					c-7.616-14.877-8.954-30.656-6.906-46.898c1.392-11.11,4.613-21.675,10.21-31.42c6.552-11.438,15.096-20.583,28.636-23.695
					c13.895-3.221,31.038,3.494,37.617,14.987c4.668,8.108,4.559,17.061,3.467,25.906c-2.047,16.652-7.753,32.375-12.612,48.29
					c-4.095,13.321-8.353,26.588-9.609,40.565c-0.764,8.462-0.164,16.734,4.531,24.131c5.542,8.681,14.332,12.175,23.913,13.895
					c23.285,4.177,41.575-4.777,56.261-22.248c14.823-17.689,22.685-38.627,27.162-60.956c4.668-23.231,4.996-46.516-0.273-69.801
					c-6.633-29.345-24.596-49.109-51.648-60.684c-31.256-13.403-62.376-10.51-92.732,3.194
					C194.998,149.163,175.999,165.46,162.568,187.79z"/>
			</g>
			<g>
			</g>
		</g>
	</g>
</g>
<g id="Layer_5">
	<circle fill="#007183" cx="255.903" cy="256.168" r="250"/>
	<g>
		<g id="XMLID_5_">
			<g>
				<path fill="#FFFFFF" d="M411.203,305.729c0.593,21.939,0.285,43.95-0.712,65.866l-22.461-1.328
					c0.166-3.273,0.142-6.641,0.237-10.057c-1.874,0-3.297,0-4.72,0v-12.808c1.589,0,3.178,0,4.767,0
					c0-7.448,0.498-14.468-0.142-21.394c-0.64-7.021-1.281-14.421-3.961-20.801c-4.625-11.005-17.219-16.034-30.122-13.591
					c-11.314,2.135-20.35,11.219-20.967,23.291c-0.593,11.575-0.925,23.196-0.925,34.795l-15.014-0.047
					c0.047-8.966,0.024-17.907-0.024-26.849c-0.047-5.289-0.261-10.602-0.901-15.82c-1.779-14.753-15.298-20.587-27.418-11.883
					c-2.633,1.874-4.933,4.174-8.04,6.831c0-15.369,0-30.075,0-44.97c-6.428,0-12.31,0-18.358,0c0,11.883,0,23.718,0,35.577h-17.006
					c-6.167,0-12.049,0-18.216,0c0,1.684,0,3.107,0,4.554c0,23.03-0.213,46.037,0.166,69.068c0.095,5.764-2.538,9.321-6.665,12.049
					c-1.992,1.305-5.408,2.348-7.187,1.494c-1.637-0.806-2.704-4.317-2.728-6.641c-0.213-25.402-0.142-50.805-0.166-76.207
					c0-1.399,0-2.822,0-4.412c-6.333,0-12.262,0-18.809,0l-3.012-16.2c0-6.617,0-12.879,0-19.259c-21.797,0-43.286,0-65.035,0
					l-16.84-2.206c4.008-15.962,18.975-26.09,35.411-27.703c50.164-4.933,100.447-4.151,150.706-3.629
					c26.161,0.285,52.322,2.206,78.436,3.914c17.67,1.186,32.352,14.919,35.103,33.063
					C408.878,275.441,410.776,290.597,411.203,305.729z"/>
				<path fill="#FFFFFF" d="M388.03,370.267l22.461,1.328c-0.546,12.073-2.348,24.264-5.337,35.957
					c-4.388,17.196-18.144,26.825-35.838,28.604c-37.736,3.795-75.543,4.08-113.397,4.554c-29.363-0.783-58.726-1.399-88.09-2.443
					c-10.151-0.356-20.35-1.21-30.359-2.941c-17.385-2.988-29.624-15.251-32.209-32.66c-2.277-15.251-4.174-30.668-4.625-46.085
					c-0.617-21.536-0.332-43.143,0.712-64.68c0.617-12.452,2.585-25.023,5.598-37.119l16.84,2.206c0,6.404,0,12.571,0,19.473
					c7.4,0,14.468,0,21.868,0c0,39.965,0,79.48,0,119.255c6.997,0,13.685,0,20.848,0c0-39.847,0-79.48,0-119.469
					c7.708,0,14.943,0,22.319,0l3.012,16.2c0,1.897,0,3.463,0,5.028c0,20.896-0.024,41.815,0.024,62.711
					c0.024,7.542,0.142,15.085,0.498,22.603c0.593,12.476,9.392,17.955,20.753,12.666c3.866-1.779,7.115-4.886,10.602-7.448
					c1.067-0.783,1.969-1.779,3.7-3.344c0,4.435,0,7.685,0,11.076c6.214,0,12.096,0,18.026,0c0-34.581,0-68.902,0-103.198h17.006
					c0,34.415,0,68.759,0,103.222c6.119,0,12.001,0,18.405,0c0-3.036,0-5.858,0-9.321c3.297,2.775,5.811,5.265,8.657,7.281
					c10.151,7.21,22.153,3.771,25.616-7.614c1.352-4.483,1.826-9.369,1.897-14.089c0.119-7.471,0.166-14.919,0.166-22.366
					l15.014,0.047c0,6.38,0.095,12.76,0.332,19.141c0.546,15.298,7.542,23.789,19.805,27.418
					c11.978,3.558,25.379-0.996,31.379-10.365C386.868,380.964,387.745,375.722,388.03,370.267z"/>
				<path fill="#007183" d="M388.172,326.009c0.64,6.926,0.142,13.946,0.142,21.394c-1.589,0-3.178,0-4.767,0
					c-11.005,0-21.797,0-33.395,0c0.498,8.989,0.569,17.528,1.565,25.971c0.593,5.005,4.767,7.448,9.511,6.973
					c4.412-0.427,7.187-3.605,7.519-8.705c0.261-3.653,0.427-7.329,0.664-11.432c4.957,0,9.535,0,14.136,0c1.423,0,2.846,0,4.72,0
					c-0.095,3.415-0.071,6.783-0.237,10.057c-0.285,5.455-1.162,10.697-4.317,15.63c-6.001,9.369-19.402,13.923-31.379,10.365
					c-12.262-3.629-19.259-12.12-19.805-27.418c-0.237-6.38-0.332-12.76-0.332-19.141c0-11.598,0.332-23.22,0.925-34.795
					c0.617-12.073,9.653-21.157,20.967-23.291c12.903-2.443,25.497,2.585,30.122,13.591
					C386.891,311.588,387.532,318.988,388.172,326.009z M350.27,331.725c6.949,0,12.974,0,19.568,0
					c-0.38-5.645-0.356-11.076-1.162-16.366c-0.806-5.147-4.08-7.519-8.752-7.4c-4.317,0.095-7.756,2.728-8.42,7.424
					C350.745,320.672,350.674,326.08,350.27,331.725z"/>
				<path fill="#FFFFFF" d="M383.547,347.402v12.808c-4.601,0-9.179,0-14.136,0c-0.237,4.103-0.403,7.78-0.664,11.432
					c-0.332,5.099-3.107,8.278-7.519,8.705c-4.744,0.474-8.918-1.969-9.511-6.973c-0.996-8.444-1.067-16.982-1.565-25.971
					C361.75,347.402,372.542,347.402,383.547,347.402z"/>
				<path fill="#FFFFFF" d="M369.838,331.725c-6.594,0-12.618,0-19.568,0c0.403-5.645,0.474-11.053,1.233-16.342
					c0.664-4.696,4.103-7.329,8.42-7.424c4.672-0.119,7.946,2.253,8.752,7.4C369.482,320.648,369.459,326.08,369.838,331.725z"/>
				<path fill="#FFFFFF" d="M341.352,107.492c0,34.652,0,69.352,0,104.36c-6.048,0-12.167,0-18.595,0c0-3.321,0-6.57,0-11.1
					c-1.897,1.874-3.036,3.012-4.174,4.103c-4.174,3.961-8.728,7.234-14.563,8.373c-8.847,1.708-14.729-2.206-16.2-11.148
					c-0.546-3.392-0.83-6.831-0.83-10.27c-0.071-27.252-0.071-54.505-0.071-81.757c0-0.783,0.071-1.542,0.142-2.704
					c6.38,0,12.31,0,18.88,0c0,1.447,0,2.822,0,4.222c0,23.552,0,47.104,0,70.657c0,2.372-0.261,4.815,0.19,7.115
					c0.403,2.182,1.091,5.55,2.49,6.048c2.04,0.735,5.265,0.047,7.234-1.21c4.317-2.751,6.997-6.38,6.902-12.333
					c-0.356-23.291-0.142-46.559-0.142-69.85c0-1.423,0-2.87,0-4.506C328.971,107.492,334.996,107.492,341.352,107.492z"/>
				<path fill="#007183" d="M317.16,322.807c0.047,8.942,0.071,17.884,0.024,26.849c0,7.448-0.047,14.895-0.166,22.366
					c-0.071,4.72-0.546,9.606-1.897,14.089c-3.463,11.385-15.464,14.824-25.616,7.614c-2.846-2.016-5.36-4.506-8.657-7.281
					l3.89-7.566c1.067,0.664,2.348,1.138,3.795,1.399c3.819,0.735,7.234-0.735,8.301-4.364c1.044-3.487,1.731-7.234,1.803-10.863
					c0.19-13.899,0.19-27.798,0-41.697c-0.071-3.629-0.759-7.376-1.779-10.863c-1.138-3.819-4.34-5.123-8.657-4.293
					c-1.376,0.261-2.609,0.712-3.676,1.328l-3.724-7.59c3.107-2.656,5.408-4.957,8.04-6.831c12.12-8.705,25.639-2.87,27.418,11.883
					C316.899,312.204,317.112,317.517,317.16,322.807z"/>
				<path fill="#FFFFFF" d="M298.636,323.352c0.19,13.899,0.19,27.798,0,41.697c-0.071,3.629-0.759,7.376-1.803,10.863
					c-1.067,3.629-4.483,5.099-8.301,4.364c-1.447-0.261-2.728-0.735-3.795-1.399c-2.419-1.423-3.89-3.629-3.89-6.167
					c-0.024-9.653,0-19.307,0-28.984c0-9.392-0.024-18.785,0-28.177c0-2.514,1.376-4.649,3.676-6.024
					c1.067-0.617,2.301-1.067,3.676-1.328c4.317-0.83,7.519,0.474,8.657,4.293C297.877,315.976,298.565,319.723,298.636,323.352z"/>
				<path fill="#007183" d="M284.737,378.876l-3.89,7.566c0,3.463,0,6.285,0,9.321c-6.404,0-12.286,0-18.405,0
					c0-34.463,0-68.807,0-103.222c0-11.859,0-23.695,0-35.577c6.048,0,11.93,0,18.358,0c0,14.895,0,29.6,0,44.97l3.724,7.59
					c-2.301,1.376-3.676,3.51-3.676,6.024c-0.024,9.392,0,18.785,0,28.177c0,9.677-0.024,19.33,0,28.984
					C280.847,375.248,282.318,377.453,284.737,378.876z"/>
				<path fill="#FFFFFF" d="M270.933,134.484c0.356,8.444,0.071,16.911,0.071,25.379c0.308,0.024,0.285,20.659-0.925,30.857
					c-1.613,13.828-12.784,22.936-26.897,22.912c-14.089-0.047-25.734-9.203-26.73-23.03c-1.257-16.982-1.115-34.083-1.091-51.113
					c0.024-5.574,0.83-11.456,2.68-16.674c4.222-11.907,14.943-17.385,26.849-16.721
					C262.11,107.089,270.292,119.612,270.933,134.484z M251.982,160.052c0-8.467,0.119-16.935-0.071-25.402
					c-0.047-2.301-0.688-4.696-1.518-6.878c-1.21-3.178-3.937-4.601-7.21-4.578c-3.297,0.024-5.977,1.518-7.163,4.696
					c-0.806,2.182-1.494,4.578-1.494,6.878c-0.119,16.674-0.095,33.348-0.024,50.022c0,1.708,0.332,3.439,0.806,5.076
					c1.186,4.198,4.032,6.404,7.993,6.356c4.151-0.024,6.641-2.324,7.78-6.096c0.546-1.755,0.854-3.629,0.878-5.455
					C252.029,176.465,251.982,168.258,251.982,160.052z"/>
				<path fill="#007183" d="M245.436,292.542c0,34.297,0,68.617,0,103.198c-5.93,0-11.812,0-18.026,0c0-3.392,0-6.641,0-11.076
					c-1.731,1.565-2.633,2.562-3.7,3.344c-3.487,2.562-6.736,5.669-10.602,7.448c-11.361,5.289-20.161-0.19-20.753-12.666
					c-0.356-7.519-0.474-15.061-0.498-22.603c-0.047-20.896-0.024-41.815-0.024-62.711c0-1.565,0-3.131,0-5.028
					c6.546,0,12.476,0,18.809,0c0,1.589,0,3.012,0,4.412c0.024,25.402-0.047,50.805,0.166,76.207
					c0.024,2.324,1.091,5.835,2.728,6.641c1.779,0.854,5.194-0.19,7.187-1.494c4.127-2.728,6.76-6.285,6.665-12.049
					c-0.38-23.03-0.166-46.037-0.166-69.068c0-1.447,0-2.87,0-4.554C233.387,292.542,239.269,292.542,245.436,292.542z"/>
				<path fill="#FFFFFF" d="M193.564,71.63c6.973,0,13.804,0,21.038,0c-0.19,1.067-0.285,2.04-0.569,2.965
					c-7.614,25.26-15.275,50.496-22.793,75.78c-0.901,2.965-1.352,6.19-1.376,9.298c-0.142,15.868-0.047,31.759-0.047,47.626
					c0,1.423,0,2.87,0,4.72c-7.329,0-14.041,0-21.252,0c0-1.565,0-2.965,0-4.364c0-12.974-0.403-25.948,0.095-38.898
					c0.474-11.835-1.826-23.102-5.479-34.178c-6.451-19.544-12.998-39.04-19.52-58.56c-0.451-1.352-0.878-2.704-1.447-4.364
					c7.448,0,14.539,0,22.2,0c4.815,17.646,9.653,35.506,14.516,53.39c0.237,0,0.451,0.024,0.664,0.024
					C184.243,107.326,188.868,89.561,193.564,71.63z"/>
				<path fill="#007183" d="M188.82,256.988c0,6.38,0,12.642,0,19.259c-7.376,0-14.61,0-22.319,0c0,39.989,0,79.622,0,119.469
					c-7.163,0-13.851,0-20.848,0c0-39.776,0-79.29,0-119.255c-7.4,0-14.468,0-21.868,0c0-6.902,0-13.069,0-19.473
					C145.534,256.988,167.023,256.988,188.82,256.988z"/>
			</g>
			<g>
			</g>
		</g>
	</g>
</g>
</svg>
